<!--
 * Copyright (c) 2024, WSO2 LLC. (http://www.wso2.com). All Rights Reserved.
 *
 * This software is the property of WSO2 LLC. and its suppliers, if any.
 * Dissemination of any information or reproduction of any material contained
 * herein in any form is strictly forbidden, unless permitted by WSO2 expressly.
 * You may not alter or remove any copyright or other notice from copies of this content."
-->

<svg width="163" height="29" viewBox="0 0 163 29" fill="none" xmlns="http://www.w3.org/2000/svg">
    <mask id="mask0_15_12" style="mask-type:luminance" maskUnits="userSpaceOnUse" x="0" y="0" width="163" height="24">
        <path d="M163 0H0V24H163V0Z" fill="white" />
    </mask>
    <g mask="url(#mask0_15_12)">
        <path d="M159.009 0L159.97 1.66699L158.905 3.513H161.035L162.001 5.17999H156.013L159.009 0Z" fill="#FF7300" />
        <path d="M151.524 5.181L152.49 3.51398H154.62L153.555 1.668L154.516 0.000976562L157.516 5.18198L151.524 5.181Z"
            fill="#FF7300" />
        <path d="M157.829 9.06799L156.764 7.22198L155.694 9.06799H153.768L156.768 3.88699L159.759 9.06799H157.829Z"
            fill="black" />
        <path
            d="M21.953 23.441V19.564H31.738C32.1696 19.564 32.5836 19.3925 32.8888 19.0873C33.194 18.7821 33.3655 18.3681 33.3655 17.9365C33.3655 17.5049 33.194 17.0909 32.8888 16.7857C32.5836 16.4805 32.1696 16.309 31.738 16.309H27.458C25.9981 16.309 24.598 15.729 23.5657 14.6967C22.5334 13.6645 21.9535 12.2644 21.9535 10.8045C21.9535 9.34459 22.5334 7.94449 23.5657 6.9122C24.598 5.87991 25.9981 5.29999 27.458 5.29999H37.243V9.17697H27.458C27.2444 9.17507 27.0327 9.21594 26.8351 9.29718C26.6376 9.37842 26.4584 9.49839 26.308 9.64999C26.0789 9.87726 25.9226 10.1675 25.8589 10.4839C25.7952 10.8002 25.827 11.1283 25.9503 11.4265C26.0736 11.7248 26.2827 11.9796 26.5512 12.1586C26.8197 12.3376 27.1353 12.4328 27.458 12.432H31.738C33.1979 12.432 34.598 13.0119 35.6302 14.0442C36.6625 15.0765 37.2425 16.4766 37.2425 17.9365C37.2425 19.3964 36.6625 20.7965 35.6302 21.8288C34.598 22.8611 33.1979 23.441 31.738 23.441H21.953Z"
            fill="black" />
        <path
            d="M47.739 23.441C46.5299 23.4694 45.3274 23.2558 44.2021 22.8127C43.0767 22.3696 42.0513 21.706 41.1862 20.8609C40.321 20.0158 39.6336 19.0063 39.1642 17.8917C38.6948 16.7771 38.453 15.5799 38.453 14.3705C38.453 13.1611 38.6948 11.9639 39.1642 10.8493C39.6336 9.73466 40.321 8.72515 41.1862 7.88006C42.0513 7.03498 43.0767 6.37139 44.2021 5.92831C45.3274 5.48524 46.5299 5.27163 47.739 5.30002H55.384V9.173H47.739C46.4066 9.23969 45.1507 9.81596 44.2312 10.7826C43.3117 11.7493 42.7989 13.0324 42.7989 14.3665C42.7989 15.7006 43.3117 16.9837 44.2312 17.9504C45.1507 18.917 46.4066 19.4933 47.739 19.56H51.511V16.305H48.659V12.448H55.39V23.457L47.739 23.441Z"
            fill="black" />
        <path
            d="M92.378 23.441L83.628 14.771V23.441H79.751V5.29997H89.536C90.6263 5.29722 91.6928 5.61859 92.6 6.22325C93.5073 6.82791 94.2144 7.68858 94.6315 8.69594C95.0486 9.7033 95.1569 10.8119 94.9426 11.8809C94.7283 12.95 94.2011 13.9312 93.428 14.7C92.975 15.1557 92.4504 15.534 91.875 15.82L90.72 16.382L97.797 23.444L92.378 23.441ZM89.536 12.452C89.9677 12.452 90.3816 12.2805 90.6868 11.9753C90.992 11.6701 91.1635 11.2561 91.1635 10.8245C91.1635 10.3928 90.992 9.97889 90.6868 9.67367C90.3816 9.36846 89.9677 9.19699 89.536 9.19699H83.628V12.452H89.536Z"
            fill="black" />
        <path
            d="M99.236 23.441V5.30099H106.881C108.09 5.2726 109.293 5.48624 110.418 5.92932C111.543 6.3724 112.569 7.03599 113.434 7.88107C114.299 8.72615 114.986 9.73567 115.456 10.8503C115.925 11.9649 116.167 13.1621 116.167 14.3715C116.167 15.5809 115.925 16.7781 115.456 17.8927C114.986 19.0073 114.299 20.0169 113.434 20.8619C112.569 21.707 111.543 22.3706 110.418 22.8137C109.293 23.2568 108.09 23.4704 106.881 23.442L99.236 23.441ZM106.881 19.564C108.213 19.4973 109.469 18.921 110.389 17.9544C111.308 16.9877 111.821 15.7046 111.821 14.3705C111.821 13.0364 111.308 11.7533 110.389 10.7866C109.469 9.81996 108.213 9.24369 106.881 9.177H103.113V19.564H106.881Z"
            fill="black" />
        <path
            d="M142.863 23.441C140.767 23.4403 138.735 22.7128 137.115 21.3825C135.495 20.0522 134.386 18.2013 133.977 16.1451C133.568 14.0889 133.885 11.9546 134.873 10.1057C135.861 8.25682 137.46 6.80772 139.397 6.00524C141.334 5.20276 143.489 5.09652 145.495 5.70464C147.501 6.31277 149.235 7.59762 150.4 9.34035C151.565 11.0831 152.09 13.1759 151.886 15.2624C151.681 17.3488 150.76 19.2998 149.278 20.783C148.45 21.6449 147.453 22.326 146.349 22.7835C145.245 23.241 144.058 23.4648 142.863 23.441ZM142.863 9.17696C141.66 9.1749 140.493 9.59033 139.561 10.3524C138.63 11.1144 137.992 12.1759 137.755 13.3559C137.519 14.536 137.699 15.7614 138.266 16.8233C138.832 17.8853 139.749 18.718 140.86 19.1794C141.971 19.6409 143.209 19.7026 144.36 19.354C145.512 19.0054 146.508 18.2681 147.177 17.2678C147.846 16.2674 148.147 15.066 148.029 13.8683C147.911 12.6707 147.382 11.5509 146.531 10.7C146.055 10.211 145.484 9.82389 144.853 9.5621C144.223 9.3003 143.546 9.16927 142.863 9.17696Z"
            fill="black" />
        <path d="M0 23.441H4.33499L10.477 12.805L16.614 23.441H20.944L10.477 5.29999L0 23.441Z" fill="black" />
        <path d="M57.066 23.441H61.401L67.538 12.805L73.675 23.441H78.006L67.537 5.29999L57.066 23.441Z" fill="black" />
        <path
            d="M117.625 23.386V5.31H132.78V9.15201H121.492V12.477H129.958V16.23H121.492V19.545H132.78V23.387L117.625 23.386Z"
            fill="black" />
    </g>
</svg>
